<?xml version="1.0" encoding="UTF-8"?>
<svg xmlns="http://www.w3.org/2000/svg" viewBox="0 0 100 100">
  <defs>
    <clipPath id="inner">
      <path d="M 88.000 50.000 L 87.999 23.602 L 87.995 21.708 L 87.988 20.539 L 87.979 19.682 L 87.967 19.001 L 87.953 18.434 L 87.936 17.949 L 87.916 17.523 L 87.894 17.145 L 87.868 16.804 L 87.841 16.494 L 87.810 16.210 L 87.776 15.949 L 87.740 15.706 L 87.700 15.480 L 87.658 15.269 L 87.613 15.071 L 87.564 14.885 L 87.512 14.710 L 87.457 14.545 L 87.399 14.388 L 87.337 14.240 L 87.272 14.100 L 87.203 13.967 L 87.130 13.840 L 87.054 13.720 L 86.973 13.605 L 86.888 13.496 L 86.799 13.393 L 86.706 13.294 L 86.607 13.201 L 86.504 13.112 L 86.395 13.027 L 86.280 12.946 L 86.160 12.870 L 86.033 12.797 L 85.900 12.728 L 85.760 12.663 L 85.612 12.601 L 85.455 12.543 L 85.290 12.488 L 85.115 12.436 L 84.929 12.387 L 84.731 12.342 L 84.520 12.300 L 84.294 12.260 L 84.051 12.224 L 83.790 12.190 L 83.506 12.159 L 83.196 12.132 L 82.855 12.106 L 82.477 12.084 L 82.051 12.064 L 81.566 12.047 L 80.999 12.033 L 80.318 12.021 L 79.461 12.012 L 78.292 12.005 L 76.398 12.001 L 51.059 12.000 L 23.602 12.001 L 21.708 12.005 L 20.539 12.012 L 19.682 12.021 L 19.001 12.033 L 18.434 12.047 L 17.949 12.064 L 17.523 12.084 L 17.145 12.106 L 16.804 12.132 L 16.494 12.159 L 16.210 12.190 L 15.949 12.224 L 15.706 12.260 L 15.480 12.300 L 15.269 12.342 L 15.071 12.387 L 14.885 12.436 L 14.710 12.488 L 14.545 12.543 L 14.388 12.601 L 14.240 12.663 L 14.100 12.728 L 13.967 12.797 L 13.840 12.870 L 13.720 12.946 L 13.605 13.027 L 13.496 13.112 L 13.393 13.201 L 13.294 13.294 L 13.201 13.393 L 13.112 13.496 L 13.027 13.605 L 12.946 13.720 L 12.870 13.840 L 12.797 13.967 L 12.728 14.100 L 12.663 14.240 L 12.601 14.388 L 12.543 14.545 L 12.488 14.710 L 12.436 14.885 L 12.387 15.071 L 12.342 15.269 L 12.300 15.480 L 12.260 15.706 L 12.224 15.949 L 12.190 16.210 L 12.159 16.494 L 12.132 16.804 L 12.106 17.145 L 12.084 17.523 L 12.064 17.949 L 12.047 18.434 L 12.033 19.001 L 12.021 19.682 L 12.012 20.539 L 12.005 21.708 L 12.001 23.602 L 12.000 48.865 L 12.001 76.398 L 12.005 78.292 L 12.012 79.461 L 12.021 80.318 L 12.033 80.999 L 12.047 81.566 L 12.064 82.051 L 12.084 82.477 L 12.106 82.855 L 12.132 83.196 L 12.159 83.506 L 12.190 83.790 L 12.224 84.051 L 12.260 84.294 L 12.300 84.520 L 12.342 84.731 L 12.387 84.929 L 12.436 85.115 L 12.488 85.290 L 12.543 85.455 L 12.601 85.612 L 12.663 85.760 L 12.728 85.900 L 12.797 86.033 L 12.870 86.160 L 12.946 86.280 L 13.027 86.395 L 13.112 86.504 L 13.201 86.607 L 13.294 86.706 L 13.393 86.799 L 13.496 86.888 L 13.605 86.973 L 13.720 87.054 L 13.840 87.130 L 13.967 87.203 L 14.100 87.272 L 14.240 87.337 L 14.388 87.399 L 14.545 87.457 L 14.710 87.512 L 14.885 87.564 L 15.071 87.613 L 15.269 87.658 L 15.480 87.700 L 15.706 87.740 L 15.949 87.776 L 16.210 87.810 L 16.494 87.841 L 16.804 87.868 L 17.145 87.894 L 17.523 87.916 L 17.949 87.936 L 18.434 87.953 L 19.001 87.967 L 19.682 87.979 L 20.539 87.988 L 21.708 87.995 L 23.602 87.999 L 48.986 88.000 L 76.398 87.999 L 78.292 87.995 L 79.461 87.988 L 80.318 87.979 L 80.999 87.967 L 81.566 87.953 L 82.051 87.936 L 82.477 87.916 L 82.855 87.894 L 83.196 87.868 L 83.506 87.841 L 83.790 87.810 L 84.051 87.776 L 84.294 87.740 L 84.520 87.700 L 84.731 87.658 L 84.929 87.613 L 85.115 87.564 L 85.290 87.512 L 85.455 87.457 L 85.612 87.399 L 85.760 87.337 L 85.900 87.272 L 86.033 87.203 L 86.160 87.130 L 86.280 87.054 L 86.395 86.973 L 86.504 86.888 L 86.607 86.799 L 86.706 86.706 L 86.799 86.607 L 86.888 86.504 L 86.973 86.395 L 87.054 86.280 L 87.130 86.160 L 87.203 86.033 L 87.272 85.900 L 87.337 85.760 L 87.399 85.612 L 87.457 85.455 L 87.512 85.290 L 87.564 85.115 L 87.613 84.929 L 87.658 84.731 L 87.700 84.520 L 87.740 84.294 L 87.776 84.051 L 87.810 83.790 L 87.841 83.506 L 87.868 83.196 L 87.894 82.855 L 87.916 82.477 L 87.936 82.051 L 87.953 81.566 L 87.967 80.999 L 87.979 80.318 L 87.988 79.461 L 87.995 78.292 L 87.999 76.398 Z"/>
    </clipPath>
  </defs>
  <path d="M 90.000 50.000 L 89.999 22.212 L 89.995 20.219 L 89.988 18.988 L 89.978 18.086 L 89.966 17.369 L 89.950 16.773 L 89.933 16.262 L 89.912 15.814 L 89.888 15.416 L 89.862 15.057 L 89.832 14.731 L 89.800 14.432 L 89.764 14.157 L 89.726 13.901 L 89.685 13.663 L 89.640 13.441 L 89.592 13.233 L 89.541 13.037 L 89.487 12.853 L 89.429 12.679 L 89.367 12.514 L 89.302 12.358 L 89.234 12.210 L 89.161 12.070 L 89.085 11.937 L 89.004 11.810 L 88.919 11.690 L 88.830 11.575 L 88.736 11.466 L 88.637 11.363 L 88.534 11.264 L 88.425 11.170 L 88.310 11.081 L 88.190 10.996 L 88.063 10.915 L 87.930 10.839 L 87.790 10.766 L 87.642 10.698 L 87.486 10.633 L 87.321 10.571 L 87.147 10.513 L 86.963 10.459 L 86.767 10.408 L 86.559 10.360 L 86.337 10.315 L 86.099 10.274 L 85.843 10.236 L 85.568 10.200 L 85.269 10.168 L 84.943 10.138 L 84.584 10.112 L 84.186 10.088 L 83.738 10.067 L 83.227 10.050 L 82.631 10.034 L 81.914 10.022 L 81.012 10.012 L 79.781 10.005 L 77.788 10.001 L 51.115 10.000 L 22.212 10.001 L 20.219 10.005 L 18.988 10.012 L 18.086 10.022 L 17.369 10.034 L 16.773 10.050 L 16.262 10.067 L 15.814 10.088 L 15.416 10.112 L 15.057 10.138 L 14.731 10.168 L 14.432 10.200 L 14.157 10.236 L 13.901 10.274 L 13.663 10.315 L 13.441 10.360 L 13.233 10.408 L 13.037 10.459 L 12.853 10.513 L 12.679 10.571 L 12.514 10.633 L 12.358 10.698 L 12.210 10.766 L 12.070 10.839 L 11.937 10.915 L 11.810 10.996 L 11.690 11.081 L 11.575 11.170 L 11.466 11.264 L 11.363 11.363 L 11.264 11.466 L 11.170 11.575 L 11.081 11.690 L 10.996 11.810 L 10.915 11.937 L 10.839 12.070 L 10.766 12.210 L 10.698 12.358 L 10.633 12.514 L 10.571 12.679 L 10.513 12.853 L 10.459 13.037 L 10.408 13.233 L 10.360 13.441 L 10.315 13.663 L 10.274 13.901 L 10.236 14.157 L 10.200 14.432 L 10.168 14.731 L 10.138 15.057 L 10.112 15.416 L 10.088 15.814 L 10.067 16.262 L 10.050 16.773 L 10.034 17.369 L 10.022 18.086 L 10.012 18.988 L 10.005 20.219 L 10.001 22.212 L 10.000 48.805 L 10.001 77.788 L 10.005 79.781 L 10.012 81.012 L 10.022 81.914 L 10.034 82.631 L 10.050 83.227 L 10.067 83.738 L 10.088 84.186 L 10.112 84.584 L 10.138 84.943 L 10.168 85.269 L 10.200 85.568 L 10.236 85.843 L 10.274 86.099 L 10.315 86.337 L 10.360 86.559 L 10.408 86.767 L 10.459 86.963 L 10.513 87.147 L 10.571 87.321 L 10.633 87.486 L 10.698 87.642 L 10.766 87.790 L 10.839 87.930 L 10.915 88.063 L 10.996 88.190 L 11.081 88.310 L 11.170 88.425 L 11.264 88.534 L 11.363 88.637 L 11.466 88.736 L 11.575 88.830 L 11.690 88.919 L 11.810 89.004 L 11.937 89.085 L 12.070 89.161 L 12.210 89.234 L 12.358 89.302 L 12.514 89.367 L 12.679 89.429 L 12.853 89.487 L 13.037 89.541 L 13.233 89.592 L 13.441 89.640 L 13.663 89.685 L 13.901 89.726 L 14.157 89.764 L 14.432 89.800 L 14.731 89.832 L 15.057 89.862 L 15.416 89.888 L 15.814 89.912 L 16.262 89.933 L 16.773 89.950 L 17.369 89.966 L 18.086 89.978 L 18.988 89.988 L 20.219 89.995 L 22.212 89.999 L 48.932 90.000 L 77.788 89.999 L 79.781 89.995 L 81.012 89.988 L 81.914 89.978 L 82.631 89.966 L 83.227 89.950 L 83.738 89.933 L 84.186 89.912 L 84.584 89.888 L 84.943 89.862 L 85.269 89.832 L 85.568 89.800 L 85.843 89.764 L 86.099 89.726 L 86.337 89.685 L 86.559 89.640 L 86.767 89.592 L 86.963 89.541 L 87.147 89.487 L 87.321 89.429 L 87.486 89.367 L 87.642 89.302 L 87.790 89.234 L 87.930 89.161 L 88.063 89.085 L 88.190 89.004 L 88.310 88.919 L 88.425 88.830 L 88.534 88.736 L 88.637 88.637 L 88.736 88.534 L 88.830 88.425 L 88.919 88.310 L 89.004 88.190 L 89.085 88.063 L 89.161 87.930 L 89.234 87.790 L 89.302 87.642 L 89.367 87.486 L 89.429 87.321 L 89.487 87.147 L 89.541 86.963 L 89.592 86.767 L 89.640 86.559 L 89.685 86.337 L 89.726 86.099 L 89.764 85.843 L 89.800 85.568 L 89.832 85.269 L 89.862 84.943 L 89.888 84.584 L 89.912 84.186 L 89.933 83.738 L 89.950 83.227 L 89.966 82.631 L 89.978 81.914 L 89.988 81.012 L 89.995 79.781 L 89.999 77.788 Z" fill="#808080"/>
  <path d="M 88.000 50.000 L 87.999 23.602 L 87.995 21.708 L 87.988 20.539 L 87.979 19.682 L 87.967 19.001 L 87.953 18.434 L 87.936 17.949 L 87.916 17.523 L 87.894 17.145 L 87.868 16.804 L 87.841 16.494 L 87.810 16.210 L 87.776 15.949 L 87.740 15.706 L 87.700 15.480 L 87.658 15.269 L 87.613 15.071 L 87.564 14.885 L 87.512 14.710 L 87.457 14.545 L 87.399 14.388 L 87.337 14.240 L 87.272 14.100 L 87.203 13.967 L 87.130 13.840 L 87.054 13.720 L 86.973 13.605 L 86.888 13.496 L 86.799 13.393 L 86.706 13.294 L 86.607 13.201 L 86.504 13.112 L 86.395 13.027 L 86.280 12.946 L 86.160 12.870 L 86.033 12.797 L 85.900 12.728 L 85.760 12.663 L 85.612 12.601 L 85.455 12.543 L 85.290 12.488 L 85.115 12.436 L 84.929 12.387 L 84.731 12.342 L 84.520 12.300 L 84.294 12.260 L 84.051 12.224 L 83.790 12.190 L 83.506 12.159 L 83.196 12.132 L 82.855 12.106 L 82.477 12.084 L 82.051 12.064 L 81.566 12.047 L 80.999 12.033 L 80.318 12.021 L 79.461 12.012 L 78.292 12.005 L 76.398 12.001 L 51.059 12.000 L 23.602 12.001 L 21.708 12.005 L 20.539 12.012 L 19.682 12.021 L 19.001 12.033 L 18.434 12.047 L 17.949 12.064 L 17.523 12.084 L 17.145 12.106 L 16.804 12.132 L 16.494 12.159 L 16.210 12.190 L 15.949 12.224 L 15.706 12.260 L 15.480 12.300 L 15.269 12.342 L 15.071 12.387 L 14.885 12.436 L 14.710 12.488 L 14.545 12.543 L 14.388 12.601 L 14.240 12.663 L 14.100 12.728 L 13.967 12.797 L 13.840 12.870 L 13.720 12.946 L 13.605 13.027 L 13.496 13.112 L 13.393 13.201 L 13.294 13.294 L 13.201 13.393 L 13.112 13.496 L 13.027 13.605 L 12.946 13.720 L 12.870 13.840 L 12.797 13.967 L 12.728 14.100 L 12.663 14.240 L 12.601 14.388 L 12.543 14.545 L 12.488 14.710 L 12.436 14.885 L 12.387 15.071 L 12.342 15.269 L 12.300 15.480 L 12.260 15.706 L 12.224 15.949 L 12.190 16.210 L 12.159 16.494 L 12.132 16.804 L 12.106 17.145 L 12.084 17.523 L 12.064 17.949 L 12.047 18.434 L 12.033 19.001 L 12.021 19.682 L 12.012 20.539 L 12.005 21.708 L 12.001 23.602 L 12.000 48.865 L 12.001 76.398 L 12.005 78.292 L 12.012 79.461 L 12.021 80.318 L 12.033 80.999 L 12.047 81.566 L 12.064 82.051 L 12.084 82.477 L 12.106 82.855 L 12.132 83.196 L 12.159 83.506 L 12.190 83.790 L 12.224 84.051 L 12.260 84.294 L 12.300 84.520 L 12.342 84.731 L 12.387 84.929 L 12.436 85.115 L 12.488 85.290 L 12.543 85.455 L 12.601 85.612 L 12.663 85.760 L 12.728 85.900 L 12.797 86.033 L 12.870 86.160 L 12.946 86.280 L 13.027 86.395 L 13.112 86.504 L 13.201 86.607 L 13.294 86.706 L 13.393 86.799 L 13.496 86.888 L 13.605 86.973 L 13.720 87.054 L 13.840 87.130 L 13.967 87.203 L 14.100 87.272 L 14.240 87.337 L 14.388 87.399 L 14.545 87.457 L 14.710 87.512 L 14.885 87.564 L 15.071 87.613 L 15.269 87.658 L 15.480 87.700 L 15.706 87.740 L 15.949 87.776 L 16.210 87.810 L 16.494 87.841 L 16.804 87.868 L 17.145 87.894 L 17.523 87.916 L 17.949 87.936 L 18.434 87.953 L 19.001 87.967 L 19.682 87.979 L 20.539 87.988 L 21.708 87.995 L 23.602 87.999 L 48.986 88.000 L 76.398 87.999 L 78.292 87.995 L 79.461 87.988 L 80.318 87.979 L 80.999 87.967 L 81.566 87.953 L 82.051 87.936 L 82.477 87.916 L 82.855 87.894 L 83.196 87.868 L 83.506 87.841 L 83.790 87.810 L 84.051 87.776 L 84.294 87.740 L 84.520 87.700 L 84.731 87.658 L 84.929 87.613 L 85.115 87.564 L 85.290 87.512 L 85.455 87.457 L 85.612 87.399 L 85.760 87.337 L 85.900 87.272 L 86.033 87.203 L 86.160 87.130 L 86.280 87.054 L 86.395 86.973 L 86.504 86.888 L 86.607 86.799 L 86.706 86.706 L 86.799 86.607 L 86.888 86.504 L 86.973 86.395 L 87.054 86.280 L 87.130 86.160 L 87.203 86.033 L 87.272 85.900 L 87.337 85.760 L 87.399 85.612 L 87.457 85.455 L 87.512 85.290 L 87.564 85.115 L 87.613 84.929 L 87.658 84.731 L 87.700 84.520 L 87.740 84.294 L 87.776 84.051 L 87.810 83.790 L 87.841 83.506 L 87.868 83.196 L 87.894 82.855 L 87.916 82.477 L 87.936 82.051 L 87.953 81.566 L 87.967 80.999 L 87.979 80.318 L 87.988 79.461 L 87.995 78.292 L 87.999 76.398 Z" fill="#ffffff"/>
  <path d="M 26 50 L 74 50" fill="none" stroke="#f0a020" stroke-width="12" stroke-linecap="round"/>
</svg>