<?xml version="1.0" encoding="UTF-8"?>
<svg xmlns="http://www.w3.org/2000/svg" viewBox="0 0 100 100">
  <defs>
    <clipPath id="inner">
      <path d="M 88.000 50.000 L 87.999 23.602 L 87.995 21.708 L 87.988 20.539 L 87.979 19.682 L 87.967 19.001 L 87.953 18.434 L 87.936 17.949 L 87.916 17.523 L 87.894 17.145 L 87.868 16.804 L 87.841 16.494 L 87.810 16.210 L 87.776 15.949 L 87.740 15.706 L 87.700 15.480 L 87.658 15.269 L 87.613 15.071 L 87.564 14.885 L 87.512 14.710 L 87.457 14.545 L 87.399 14.388 L 87.337 14.240 L 87.272 14.100 L 87.203 13.967 L 87.130 13.840 L 87.054 13.720 L 86.973 13.605 L 86.888 13.496 L 86.799 13.393 L 86.706 13.294 L 86.607 13.201 L 86.504 13.112 L 86.395 13.027 L 86.280 12.946 L 86.160 12.870 L 86.033 12.797 L 85.900 12.728 L 85.760 12.663 L 85.612 12.601 L 85.455 12.543 L 85.290 12.488 L 85.115 12.436 L 84.929 12.387 L 84.731 12.342 L 84.520 12.300 L 84.294 12.260 L 84.051 12.224 L 83.790 12.190 L 83.506 12.159 L 83.196 12.132 L 82.855 12.106 L 82.477 12.084 L 82.051 12.064 L 81.566 12.047 L 80.999 12.033 L 80.318 12.021 L 79.461 12.012 L 78.292 12.005 L 76.398 12.001 L 51.059 12.000 L 23.602 12.001 L 21.708 12.005 L 20.539 12.012 L 19.682 12.021 L 19.001 12.033 L 18.434 12.047 L 17.949 12.064 L 17.523 12.084 L 17.145 12.106 L 16.804 12.132 L 16.494 12.159 L 16.210 12.190 L 15.949 12.224 L 15.706 12.260 L 15.480 12.300 L 15.269 12.342 L 15.071 12.387 L 14.885 12.436 L 14.710 12.488 L 14.545 12.543 L 14.388 12.601 L 14.240 12.663 L 14.100 12.728 L 13.967 12.797 L 13.840 12.870 L 13.720 12.946 L 13.605 13.027 L 13.496 13.112 L 13.393 13.201 L 13.294 13.294 L 13.201 13.393 L 13.112 13.496 L 13.027 13.605 L 12.946 13.720 L 12.870 13.840 L 12.797 13.967 L 12.728 14.100 L 12.663 14.240 L 12.601 14.388 L 12.543 14.545 L 12.488 14.710 L 12.436 14.885 L 12.387 15.071 L 12.342 15.269 L 12.300 15.480 L 12.260 15.706 L 12.224 15.949 L 12.190 16.210 L 12.159 16.494 L 12.132 16.804 L 12.106 17.145 L 12.084 17.523 L 12.064 17.949 L 12.047 18.434 L 12.033 19.001 L 12.021 19.682 L 12.012 20.539 L 12.005 21.708 L 12.001 23.602 L 12.000 48.865 L 12.001 76.398 L 12.005 78.292 L 12.012 79.461 L 12.021 80.318 L 12.033 80.999 L 12.047 81.566 L 12.064 82.051 L 12.084 82.477 L 12.106 82.855 L 12.132 83.196 L 12.159 83.506 L 12.190 83.790 L 12.224 84.051 L 12.260 84.294 L 12.300 84.520 L 12.342 84.731 L 12.387 84.929 L 12.436 85.115 L 12.488 85.290 L 12.543 85.455 L 12.601 85.612 L 12.663 85.760 L 12.728 85.900 L 12.797 86.033 L 12.870 86.160 L 12.946 86.280 L 13.027 86.395 L 13.112 86.504 L 13.201 86.607 L 13.294 86.706 L 13.393 86.799 L 13.496 86.888 L 13.605 86.973 L 13.720 87.054 L 13.840 87.130 L 13.967 87.203 L 14.100 87.272 L 14.240 87.337 L 14.388 87.399 L 14.545 87.457 L 14.710 87.512 L 14.885 87.564 L 15.071 87.613 L 15.269 87.658 L 15.480 87.700 L 15.706 87.740 L 15.949 87.776 L 16.210 87.810 L 16.494 87.841 L 16.804 87.868 L 17.145 87.894 L 17.523 87.916 L 17.949 87.936 L 18.434 87.953 L 19.001 87.967 L 19.682 87.979 L 20.539 87.988 L 21.708 87.995 L 23.602 87.999 L 48.986 88.000 L 76.398 87.999 L 78.292 87.995 L 79.461 87.988 L 80.318 87.979 L 80.999 87.967 L 81.566 87.953 L 82.051 87.936 L 82.477 87.916 L 82.855 87.894 L 83.196 87.868 L 83.506 87.841 L 83.790 87.810 L 84.051 87.776 L 84.294 87.740 L 84.520 87.700 L 84.731 87.658 L 84.929 87.613 L 85.115 87.564 L 85.290 87.512 L 85.455 87.457 L 85.612 87.399 L 85.760 87.337 L 85.900 87.272 L 86.033 87.203 L 86.160 87.130 L 86.280 87.054 L 86.395 86.973 L 86.504 86.888 L 86.607 86.799 L 86.706 86.706 L 86.799 86.607 L 86.888 86.504 L 86.973 86.395 L 87.054 86.280 L 87.130 86.160 L 87.203 86.033 L 87.272 85.900 L 87.337 85.760 L 87.399 85.612 L 87.457 85.455 L 87.512 85.290 L 87.564 85.115 L 87.613 84.929 L 87.658 84.731 L 87.700 84.520 L 87.740 84.294 L 87.776 84.051 L 87.810 83.790 L 87.841 83.506 L 87.868 83.196 L 87.894 82.855 L 87.916 82.477 L 87.936 82.051 L 87.953 81.566 L 87.967 80.999 L 87.979 80.318 L 87.988 79.461 L 87.995 78.292 L 87.999 76.398 Z"/>
    </clipPath>
    <linearGradient id="water" x1="0" y1="88" x2="0" y2="12" gradientUnits="userSpaceOnUse">
      <stop offset="0" stop-color="#000000"/>
      <stop offset="1" stop-color="#202020"/>
    </linearGradient>
  </defs>
  <path d="M 90.000 50.000 L 89.999 22.212 L 89.995 20.219 L 89.988 18.988 L 89.978 18.086 L 89.966 17.369 L 89.950 16.773 L 89.933 16.262 L 89.912 15.814 L 89.888 15.416 L 89.862 15.057 L 89.832 14.731 L 89.800 14.432 L 89.764 14.157 L 89.726 13.901 L 89.685 13.663 L 89.640 13.441 L 89.592 13.233 L 89.541 13.037 L 89.487 12.853 L 89.429 12.679 L 89.367 12.514 L 89.302 12.358 L 89.234 12.210 L 89.161 12.070 L 89.085 11.937 L 89.004 11.810 L 88.919 11.690 L 88.830 11.575 L 88.736 11.466 L 88.637 11.363 L 88.534 11.264 L 88.425 11.170 L 88.310 11.081 L 88.190 10.996 L 88.063 10.915 L 87.930 10.839 L 87.790 10.766 L 87.642 10.698 L 87.486 10.633 L 87.321 10.571 L 87.147 10.513 L 86.963 10.459 L 86.767 10.408 L 86.559 10.360 L 86.337 10.315 L 86.099 10.274 L 85.843 10.236 L 85.568 10.200 L 85.269 10.168 L 84.943 10.138 L 84.584 10.112 L 84.186 10.088 L 83.738 10.067 L 83.227 10.050 L 82.631 10.034 L 81.914 10.022 L 81.012 10.012 L 79.781 10.005 L 77.788 10.001 L 51.115 10.000 L 22.212 10.001 L 20.219 10.005 L 18.988 10.012 L 18.086 10.022 L 17.369 10.034 L 16.773 10.050 L 16.262 10.067 L 15.814 10.088 L 15.416 10.112 L 15.057 10.138 L 14.731 10.168 L 14.432 10.200 L 14.157 10.236 L 13.901 10.274 L 13.663 10.315 L 13.441 10.360 L 13.233 10.408 L 13.037 10.459 L 12.853 10.513 L 12.679 10.571 L 12.514 10.633 L 12.358 10.698 L 12.210 10.766 L 12.070 10.839 L 11.937 10.915 L 11.810 10.996 L 11.690 11.081 L 11.575 11.170 L 11.466 11.264 L 11.363 11.363 L 11.264 11.466 L 11.170 11.575 L 11.081 11.690 L 10.996 11.810 L 10.915 11.937 L 10.839 12.070 L 10.766 12.210 L 10.698 12.358 L 10.633 12.514 L 10.571 12.679 L 10.513 12.853 L 10.459 13.037 L 10.408 13.233 L 10.360 13.441 L 10.315 13.663 L 10.274 13.901 L 10.236 14.157 L 10.200 14.432 L 10.168 14.731 L 10.138 15.057 L 10.112 15.416 L 10.088 15.814 L 10.067 16.262 L 10.050 16.773 L 10.034 17.369 L 10.022 18.086 L 10.012 18.988 L 10.005 20.219 L 10.001 22.212 L 10.000 48.805 L 10.001 77.788 L 10.005 79.781 L 10.012 81.012 L 10.022 81.914 L 10.034 82.631 L 10.050 83.227 L 10.067 83.738 L 10.088 84.186 L 10.112 84.584 L 10.138 84.943 L 10.168 85.269 L 10.200 85.568 L 10.236 85.843 L 10.274 86.099 L 10.315 86.337 L 10.360 86.559 L 10.408 86.767 L 10.459 86.963 L 10.513 87.147 L 10.571 87.321 L 10.633 87.486 L 10.698 87.642 L 10.766 87.790 L 10.839 87.930 L 10.915 88.063 L 10.996 88.190 L 11.081 88.310 L 11.170 88.425 L 11.264 88.534 L 11.363 88.637 L 11.466 88.736 L 11.575 88.830 L 11.690 88.919 L 11.810 89.004 L 11.937 89.085 L 12.070 89.161 L 12.210 89.234 L 12.358 89.302 L 12.514 89.367 L 12.679 89.429 L 12.853 89.487 L 13.037 89.541 L 13.233 89.592 L 13.441 89.640 L 13.663 89.685 L 13.901 89.726 L 14.157 89.764 L 14.432 89.800 L 14.731 89.832 L 15.057 89.862 L 15.416 89.888 L 15.814 89.912 L 16.262 89.933 L 16.773 89.950 L 17.369 89.966 L 18.086 89.978 L 18.988 89.988 L 20.219 89.995 L 22.212 89.999 L 48.932 90.000 L 77.788 89.999 L 79.781 89.995 L 81.012 89.988 L 81.914 89.978 L 82.631 89.966 L 83.227 89.950 L 83.738 89.933 L 84.186 89.912 L 84.584 89.888 L 84.943 89.862 L 85.269 89.832 L 85.568 89.800 L 85.843 89.764 L 86.099 89.726 L 86.337 89.685 L 86.559 89.640 L 86.767 89.592 L 86.963 89.541 L 87.147 89.487 L 87.321 89.429 L 87.486 89.367 L 87.642 89.302 L 87.790 89.234 L 87.930 89.161 L 88.063 89.085 L 88.190 89.004 L 88.310 88.919 L 88.425 88.830 L 88.534 88.736 L 88.637 88.637 L 88.736 88.534 L 88.830 88.425 L 88.919 88.310 L 89.004 88.190 L 89.085 88.063 L 89.161 87.930 L 89.234 87.790 L 89.302 87.642 L 89.367 87.486 L 89.429 87.321 L 89.487 87.147 L 89.541 86.963 L 89.592 86.767 L 89.640 86.559 L 89.685 86.337 L 89.726 86.099 L 89.764 85.843 L 89.800 85.568 L 89.832 85.269 L 89.862 84.943 L 89.888 84.584 L 89.912 84.186 L 89.933 83.738 L 89.950 83.227 L 89.966 82.631 L 89.978 81.914 L 89.988 81.012 L 89.995 79.781 L 89.999 77.788 Z" fill="#808080"/>
  <path d="M 88.000 50.000 L 87.999 23.602 L 87.995 21.708 L 87.988 20.539 L 87.979 19.682 L 87.967 19.001 L 87.953 18.434 L 87.936 17.949 L 87.916 17.523 L 87.894 17.145 L 87.868 16.804 L 87.841 16.494 L 87.810 16.210 L 87.776 15.949 L 87.740 15.706 L 87.700 15.480 L 87.658 15.269 L 87.613 15.071 L 87.564 14.885 L 87.512 14.710 L 87.457 14.545 L 87.399 14.388 L 87.337 14.240 L 87.272 14.100 L 87.203 13.967 L 87.130 13.840 L 87.054 13.720 L 86.973 13.605 L 86.888 13.496 L 86.799 13.393 L 86.706 13.294 L 86.607 13.201 L 86.504 13.112 L 86.395 13.027 L 86.280 12.946 L 86.160 12.870 L 86.033 12.797 L 85.900 12.728 L 85.760 12.663 L 85.612 12.601 L 85.455 12.543 L 85.290 12.488 L 85.115 12.436 L 84.929 12.387 L 84.731 12.342 L 84.520 12.300 L 84.294 12.260 L 84.051 12.224 L 83.790 12.190 L 83.506 12.159 L 83.196 12.132 L 82.855 12.106 L 82.477 12.084 L 82.051 12.064 L 81.566 12.047 L 80.999 12.033 L 80.318 12.021 L 79.461 12.012 L 78.292 12.005 L 76.398 12.001 L 51.059 12.000 L 23.602 12.001 L 21.708 12.005 L 20.539 12.012 L 19.682 12.021 L 19.001 12.033 L 18.434 12.047 L 17.949 12.064 L 17.523 12.084 L 17.145 12.106 L 16.804 12.132 L 16.494 12.159 L 16.210 12.190 L 15.949 12.224 L 15.706 12.260 L 15.480 12.300 L 15.269 12.342 L 15.071 12.387 L 14.885 12.436 L 14.710 12.488 L 14.545 12.543 L 14.388 12.601 L 14.240 12.663 L 14.100 12.728 L 13.967 12.797 L 13.840 12.870 L 13.720 12.946 L 13.605 13.027 L 13.496 13.112 L 13.393 13.201 L 13.294 13.294 L 13.201 13.393 L 13.112 13.496 L 13.027 13.605 L 12.946 13.720 L 12.870 13.840 L 12.797 13.967 L 12.728 14.100 L 12.663 14.240 L 12.601 14.388 L 12.543 14.545 L 12.488 14.710 L 12.436 14.885 L 12.387 15.071 L 12.342 15.269 L 12.300 15.480 L 12.260 15.706 L 12.224 15.949 L 12.190 16.210 L 12.159 16.494 L 12.132 16.804 L 12.106 17.145 L 12.084 17.523 L 12.064 17.949 L 12.047 18.434 L 12.033 19.001 L 12.021 19.682 L 12.012 20.539 L 12.005 21.708 L 12.001 23.602 L 12.000 48.865 L 12.001 76.398 L 12.005 78.292 L 12.012 79.461 L 12.021 80.318 L 12.033 80.999 L 12.047 81.566 L 12.064 82.051 L 12.084 82.477 L 12.106 82.855 L 12.132 83.196 L 12.159 83.506 L 12.190 83.790 L 12.224 84.051 L 12.260 84.294 L 12.300 84.520 L 12.342 84.731 L 12.387 84.929 L 12.436 85.115 L 12.488 85.290 L 12.543 85.455 L 12.601 85.612 L 12.663 85.760 L 12.728 85.900 L 12.797 86.033 L 12.870 86.160 L 12.946 86.280 L 13.027 86.395 L 13.112 86.504 L 13.201 86.607 L 13.294 86.706 L 13.393 86.799 L 13.496 86.888 L 13.605 86.973 L 13.720 87.054 L 13.840 87.130 L 13.967 87.203 L 14.100 87.272 L 14.240 87.337 L 14.388 87.399 L 14.545 87.457 L 14.710 87.512 L 14.885 87.564 L 15.071 87.613 L 15.269 87.658 L 15.480 87.700 L 15.706 87.740 L 15.949 87.776 L 16.210 87.810 L 16.494 87.841 L 16.804 87.868 L 17.145 87.894 L 17.523 87.916 L 17.949 87.936 L 18.434 87.953 L 19.001 87.967 L 19.682 87.979 L 20.539 87.988 L 21.708 87.995 L 23.602 87.999 L 48.986 88.000 L 76.398 87.999 L 78.292 87.995 L 79.461 87.988 L 80.318 87.979 L 80.999 87.967 L 81.566 87.953 L 82.051 87.936 L 82.477 87.916 L 82.855 87.894 L 83.196 87.868 L 83.506 87.841 L 83.790 87.810 L 84.051 87.776 L 84.294 87.740 L 84.520 87.700 L 84.731 87.658 L 84.929 87.613 L 85.115 87.564 L 85.290 87.512 L 85.455 87.457 L 85.612 87.399 L 85.760 87.337 L 85.900 87.272 L 86.033 87.203 L 86.160 87.130 L 86.280 87.054 L 86.395 86.973 L 86.504 86.888 L 86.607 86.799 L 86.706 86.706 L 86.799 86.607 L 86.888 86.504 L 86.973 86.395 L 87.054 86.280 L 87.130 86.160 L 87.203 86.033 L 87.272 85.900 L 87.337 85.760 L 87.399 85.612 L 87.457 85.455 L 87.512 85.290 L 87.564 85.115 L 87.613 84.929 L 87.658 84.731 L 87.700 84.520 L 87.740 84.294 L 87.776 84.051 L 87.810 83.790 L 87.841 83.506 L 87.868 83.196 L 87.894 82.855 L 87.916 82.477 L 87.936 82.051 L 87.953 81.566 L 87.967 80.999 L 87.979 80.318 L 87.988 79.461 L 87.995 78.292 L 87.999 76.398 Z" fill="#ffffff"/>
  <path d="M 12.000 88.000 L 12.000 17.320 L 12.317 17.163 L 12.633 17.006 L 12.950 16.851 L 13.267 16.696 L 13.583 16.544 L 13.900 16.393 L 14.217 16.245 L 14.533 16.100 L 14.850 15.958 L 15.167 15.820 L 15.483 15.686 L 15.800 15.557 L 16.117 15.432 L 16.433 15.313 L 16.750 15.199 L 17.067 15.091 L 17.383 14.989 L 17.700 14.893 L 18.017 14.804 L 18.333 14.722 L 18.650 14.647 L 18.967 14.579 L 19.283 14.519 L 19.600 14.467 L 19.917 14.422 L 20.233 14.386 L 20.550 14.357 L 20.867 14.336 L 21.183 14.324 L 21.500 14.320 L 21.817 14.324 L 22.133 14.336 L 22.450 14.357 L 22.767 14.386 L 23.083 14.422 L 23.400 14.467 L 23.717 14.519 L 24.033 14.579 L 24.350 14.647 L 24.667 14.722 L 24.983 14.804 L 25.300 14.893 L 25.617 14.989 L 25.933 15.091 L 26.250 15.199 L 26.567 15.313 L 26.883 15.432 L 27.200 15.557 L 27.517 15.686 L 27.833 15.820 L 28.150 15.958 L 28.467 16.100 L 28.783 16.245 L 29.100 16.393 L 29.417 16.544 L 29.733 16.696 L 30.050 16.851 L 30.367 17.006 L 30.683 17.163 L 31.000 17.320 L 31.317 17.477 L 31.633 17.634 L 31.950 17.789 L 32.267 17.944 L 32.583 18.096 L 32.900 18.247 L 33.217 18.395 L 33.533 18.540 L 33.850 18.682 L 34.167 18.820 L 34.483 18.954 L 34.800 19.083 L 35.117 19.208 L 35.433 19.327 L 35.750 19.441 L 36.067 19.549 L 36.383 19.651 L 36.700 19.747 L 37.017 19.836 L 37.333 19.918 L 37.650 19.993 L 37.967 20.061 L 38.283 20.121 L 38.600 20.173 L 38.917 20.218 L 39.233 20.254 L 39.550 20.283 L 39.867 20.304 L 40.183 20.316 L 40.500 20.320 L 40.817 20.316 L 41.133 20.304 L 41.450 20.283 L 41.767 20.254 L 42.083 20.218 L 42.400 20.173 L 42.717 20.121 L 43.033 20.061 L 43.350 19.993 L 43.667 19.918 L 43.983 19.836 L 44.300 19.747 L 44.617 19.651 L 44.933 19.549 L 45.250 19.441 L 45.567 19.327 L 45.883 19.208 L 46.200 19.083 L 46.517 18.954 L 46.833 18.820 L 47.150 18.682 L 47.467 18.540 L 47.783 18.395 L 48.100 18.247 L 48.417 18.096 L 48.733 17.944 L 49.050 17.789 L 49.367 17.634 L 49.683 17.477 L 50.000 17.320 L 50.317 17.163 L 50.633 17.006 L 50.950 16.851 L 51.267 16.696 L 51.583 16.544 L 51.900 16.393 L 52.217 16.245 L 52.533 16.100 L 52.850 15.958 L 53.167 15.820 L 53.483 15.686 L 53.800 15.557 L 54.117 15.432 L 54.433 15.313 L 54.750 15.199 L 55.067 15.091 L 55.383 14.989 L 55.700 14.893 L 56.017 14.804 L 56.333 14.722 L 56.650 14.647 L 56.967 14.579 L 57.283 14.519 L 57.600 14.467 L 57.917 14.422 L 58.233 14.386 L 58.550 14.357 L 58.867 14.336 L 59.183 14.324 L 59.500 14.320 L 59.817 14.324 L 60.133 14.336 L 60.450 14.357 L 60.767 14.386 L 61.083 14.422 L 61.400 14.467 L 61.717 14.519 L 62.033 14.579 L 62.350 14.647 L 62.667 14.722 L 62.983 14.804 L 63.300 14.893 L 63.617 14.989 L 63.933 15.091 L 64.250 15.199 L 64.567 15.313 L 64.883 15.432 L 65.200 15.557 L 65.517 15.686 L 65.833 15.820 L 66.150 15.958 L 66.467 16.100 L 66.783 16.245 L 67.100 16.393 L 67.417 16.544 L 67.733 16.696 L 68.050 16.851 L 68.367 17.006 L 68.683 17.163 L 69.000 17.320 L 69.317 17.477 L 69.633 17.634 L 69.950 17.789 L 70.267 17.944 L 70.583 18.096 L 70.900 18.247 L 71.217 18.395 L 71.533 18.540 L 71.850 18.682 L 72.167 18.820 L 72.483 18.954 L 72.800 19.083 L 73.117 19.208 L 73.433 19.327 L 73.750 19.441 L 74.067 19.549 L 74.383 19.651 L 74.700 19.747 L 75.017 19.836 L 75.333 19.918 L 75.650 19.993 L 75.967 20.061 L 76.283 20.121 L 76.600 20.173 L 76.917 20.218 L 77.233 20.254 L 77.550 20.283 L 77.867 20.304 L 78.183 20.316 L 78.500 20.320 L 78.817 20.316 L 79.133 20.304 L 79.450 20.283 L 79.767 20.254 L 80.083 20.218 L 80.400 20.173 L 80.717 20.121 L 81.033 20.061 L 81.350 19.993 L 81.667 19.918 L 81.983 19.836 L 82.300 19.747 L 82.617 19.651 L 82.933 19.549 L 83.250 19.441 L 83.567 19.327 L 83.883 19.208 L 84.200 19.083 L 84.517 18.954 L 84.833 18.820 L 85.150 18.682 L 85.467 18.540 L 85.783 18.395 L 86.100 18.247 L 86.417 18.096 L 86.733 17.944 L 87.050 17.789 L 87.367 17.634 L 87.683 17.477 L 88.000 17.320 L 88.000 88.000 Z" fill="url(#water)" clip-path="url(#inner)"/>
  <path d="M 12.000 17.320 L 12.317 17.163 L 12.633 17.006 L 12.950 16.851 L 13.267 16.696 L 13.583 16.544 L 13.900 16.393 L 14.217 16.245 L 14.533 16.100 L 14.850 15.958 L 15.167 15.820 L 15.483 15.686 L 15.800 15.557 L 16.117 15.432 L 16.433 15.313 L 16.750 15.199 L 17.067 15.091 L 17.383 14.989 L 17.700 14.893 L 18.017 14.804 L 18.333 14.722 L 18.650 14.647 L 18.967 14.579 L 19.283 14.519 L 19.600 14.467 L 19.917 14.422 L 20.233 14.386 L 20.550 14.357 L 20.867 14.336 L 21.183 14.324 L 21.500 14.320 L 21.817 14.324 L 22.133 14.336 L 22.450 14.357 L 22.767 14.386 L 23.083 14.422 L 23.400 14.467 L 23.717 14.519 L 24.033 14.579 L 24.350 14.647 L 24.667 14.722 L 24.983 14.804 L 25.300 14.893 L 25.617 14.989 L 25.933 15.091 L 26.250 15.199 L 26.567 15.313 L 26.883 15.432 L 27.200 15.557 L 27.517 15.686 L 27.833 15.820 L 28.150 15.958 L 28.467 16.100 L 28.783 16.245 L 29.100 16.393 L 29.417 16.544 L 29.733 16.696 L 30.050 16.851 L 30.367 17.006 L 30.683 17.163 L 31.000 17.320 L 31.317 17.477 L 31.633 17.634 L 31.950 17.789 L 32.267 17.944 L 32.583 18.096 L 32.900 18.247 L 33.217 18.395 L 33.533 18.540 L 33.850 18.682 L 34.167 18.820 L 34.483 18.954 L 34.800 19.083 L 35.117 19.208 L 35.433 19.327 L 35.750 19.441 L 36.067 19.549 L 36.383 19.651 L 36.700 19.747 L 37.017 19.836 L 37.333 19.918 L 37.650 19.993 L 37.967 20.061 L 38.283 20.121 L 38.600 20.173 L 38.917 20.218 L 39.233 20.254 L 39.550 20.283 L 39.867 20.304 L 40.183 20.316 L 40.500 20.320 L 40.817 20.316 L 41.133 20.304 L 41.450 20.283 L 41.767 20.254 L 42.083 20.218 L 42.400 20.173 L 42.717 20.121 L 43.033 20.061 L 43.350 19.993 L 43.667 19.918 L 43.983 19.836 L 44.300 19.747 L 44.617 19.651 L 44.933 19.549 L 45.250 19.441 L 45.567 19.327 L 45.883 19.208 L 46.200 19.083 L 46.517 18.954 L 46.833 18.820 L 47.150 18.682 L 47.467 18.540 L 47.783 18.395 L 48.100 18.247 L 48.417 18.096 L 48.733 17.944 L 49.050 17.789 L 49.367 17.634 L 49.683 17.477 L 50.000 17.320 L 50.317 17.163 L 50.633 17.006 L 50.950 16.851 L 51.267 16.696 L 51.583 16.544 L 51.900 16.393 L 52.217 16.245 L 52.533 16.100 L 52.850 15.958 L 53.167 15.820 L 53.483 15.686 L 53.800 15.557 L 54.117 15.432 L 54.433 15.313 L 54.750 15.199 L 55.067 15.091 L 55.383 14.989 L 55.700 14.893 L 56.017 14.804 L 56.333 14.722 L 56.650 14.647 L 56.967 14.579 L 57.283 14.519 L 57.600 14.467 L 57.917 14.422 L 58.233 14.386 L 58.550 14.357 L 58.867 14.336 L 59.183 14.324 L 59.500 14.320 L 59.817 14.324 L 60.133 14.336 L 60.450 14.357 L 60.767 14.386 L 61.083 14.422 L 61.400 14.467 L 61.717 14.519 L 62.033 14.579 L 62.350 14.647 L 62.667 14.722 L 62.983 14.804 L 63.300 14.893 L 63.617 14.989 L 63.933 15.091 L 64.250 15.199 L 64.567 15.313 L 64.883 15.432 L 65.200 15.557 L 65.517 15.686 L 65.833 15.820 L 66.150 15.958 L 66.467 16.100 L 66.783 16.245 L 67.100 16.393 L 67.417 16.544 L 67.733 16.696 L 68.050 16.851 L 68.367 17.006 L 68.683 17.163 L 69.000 17.320 L 69.317 17.477 L 69.633 17.634 L 69.950 17.789 L 70.267 17.944 L 70.583 18.096 L 70.900 18.247 L 71.217 18.395 L 71.533 18.540 L 71.850 18.682 L 72.167 18.820 L 72.483 18.954 L 72.800 19.083 L 73.117 19.208 L 73.433 19.327 L 73.750 19.441 L 74.067 19.549 L 74.383 19.651 L 74.700 19.747 L 75.017 19.836 L 75.333 19.918 L 75.650 19.993 L 75.967 20.061 L 76.283 20.121 L 76.600 20.173 L 76.917 20.218 L 77.233 20.254 L 77.550 20.283 L 77.867 20.304 L 78.183 20.316 L 78.500 20.320 L 78.817 20.316 L 79.133 20.304 L 79.450 20.283 L 79.767 20.254 L 80.083 20.218 L 80.400 20.173 L 80.717 20.121 L 81.033 20.061 L 81.350 19.993 L 81.667 19.918 L 81.983 19.836 L 82.300 19.747 L 82.617 19.651 L 82.933 19.549 L 83.250 19.441 L 83.567 19.327 L 83.883 19.208 L 84.200 19.083 L 84.517 18.954 L 84.833 18.820 L 85.150 18.682 L 85.467 18.540 L 85.783 18.395 L 86.100 18.247 L 86.417 18.096 L 86.733 17.944 L 87.050 17.789 L 87.367 17.634 L 87.683 17.477 L 88.000 17.320" fill="none" stroke="#c8c8c8" stroke-width="0.8" clip-path="url(#inner)"/>
</svg>
